<svg width="32" height="32" viewBox="0 0 32 32" fill="none" xmlns="http://www.w3.org/2000/svg">
<g clip-path="url(#clip0_481_1471)">
<path fill-rule="evenodd" clip-rule="evenodd" d="M16 32C24.8366 32 32 24.8366 32 16C32 7.16344 24.8366 0 16 0C7.16344 0 0 7.16344 0 16C0 24.8366 7.16344 32 16 32ZM20.1908 16.9372C21.0528 17.6527 22.0002 18.0921 23.0123 18.0921C24.3752 18.0921 25.4871 16.9509 25.4913 15.5537C25.4913 14.1524 24.3793 13.0112 23.0123 13.0112C21.1896 13.0112 20.5971 14.8162 20.4099 15.8909L20.4006 15.9279L20.1908 16.9372ZM18.1449 14.5391C18.8783 11.9871 20.6835 10.4351 23.0123 10.4351L23.0122 10.4349C25.7606 10.4349 27.9978 12.7298 27.9999 15.5431C27.9999 18.3617 25.7627 20.6714 23.0143 20.6714C21.7285 20.6714 20.6073 20.2699 19.6322 19.6293L18.5202 24.9999H15.9539L17.4896 17.5958C16.7644 16.6601 16.1678 15.6085 15.6803 14.5665V15.6887C15.6803 18.4282 13.5057 20.6767 10.8355 20.6767C8.16531 20.6767 5.99075 18.4282 6.00003 15.6887V9H8.50673V15.6887C8.50673 17.0068 9.55393 18.0815 10.8397 18.0815C12.1254 18.0815 13.1736 17.0068 13.1736 15.6887V9H15.6793C16.1761 10.7439 17.0237 12.8143 18.1449 14.5391Z" fill="white"/>
</g>
<defs>
<clipPath id="clip0_481_1471">
<rect width="32" height="32" fill="white"/>
</clipPath>
</defs>
</svg>
